<?xml version="1.0" standalone="no"?>
<!DOCTYPE svg PUBLIC "-//W3C//DTD SVG 20010904//EN"
 "http://www.w3.org/TR/2001/REC-SVG-20010904/DTD/svg10.dtd">
<svg version="1.0" xmlns="http://www.w3.org/2000/svg"
 width="128.000000pt" height="128.000000pt" viewBox="0 0 128.000000 128.000000"
 preserveAspectRatio="xMidYMid meet">
<metadata>
Created by potrace 1.11, written by Peter Selinger 2001-2013
</metadata>
<g transform="translate(0.000000,128.000000) scale(0.100000,-0.100000)"
fill="#000000" stroke="none">
<path d="M146 1131 c-5 -7 5 -11 29 -11 49 0 93 -25 102 -58 4 -15 8 -203 8
-418 0 -420 -1 -430 -52 -453 -13 -6 -37 -11 -53 -11 -16 0 -32 -4 -35 -10 -4
-7 68 -10 210 -10 142 0 214 3 210 10 -3 6 -20 10 -37 10 -38 0 -86 28 -95 55
-3 11 -7 102 -7 203 l-2 182 51 0 51 0 164 -230 165 -229 133 -1 c72 0 132 4
132 8 0 5 -26 16 -59 25 -77 22 -115 60 -272 279 l-127 176 42 12 c133 39 205
123 205 240 1 61 -28 119 -79 163 -76 65 -103 70 -406 75 -190 3 -274 1 -278
-7z m464 -52 c77 -23 130 -95 135 -183 7 -131 -87 -216 -243 -219 l-76 -2 -1
185 c-1 102 2 193 7 202 4 9 20 18 35 20 73 9 106 8 143 -3z"/>
</g>
</svg>
